<?xml version="1.0" encoding="utf-8"?>
<!-- Generator: Adobe Illustrator 18.0.0, SVG Export Plug-In . SVG Version: 6.00 Build 0)  -->
<!DOCTYPE svg PUBLIC "-//W3C//DTD SVG 1.1//EN" "http://www.w3.org/Graphics/SVG/1.1/DTD/svg11.dtd">
<svg version="1.1" id="ecommerce_1_" xmlns="http://www.w3.org/2000/svg" xmlns:xlink="http://www.w3.org/1999/xlink" x="0px"
	 y="0px" viewBox="0 0 115 115" style="enable-background:new 0 0 115 115;" xml:space="preserve">
<style type="text/css">
	.st0{fill:#FFEEAD;}
	.st1{fill:#C9B77D;}
	.st2{fill:#99734A;}
	.st3{fill:#FF6F69;}
	.st4{fill:#96CEB4;}
	.st5{fill:none;}
	.st6{fill:#AA9865;}
	.st7{fill:#71A58A;}
	.st8{fill:#FFCC5C;}
	.st9{fill:#825E3B;}
	.st10{fill:#639376;}
	.st11{fill:#E05858;}
	.st12{fill:#C1821E;}
	.st13{fill:#D6A041;}
	.st14{fill:#B28559;}
	.st15{fill:#BF4343;}
	.st16{fill:#D3C089;}
	.st17{fill:#7C5C3C;}
	.st18{fill:#FDCC5C;}
	.st19{fill:#FFFFFF;}
</style>
<g id="timed_deals_1_">
	<g>
		<g>
			<g>
				<path class="st2" d="M58.422,9.031c-1.455,0-2.646,1.191-2.646,2.646v8.39c0,1.455,1.191,2.646,2.646,2.646
					c1.455,0,2.646-1.191,2.646-2.646v-8.39C61.069,10.222,59.878,9.031,58.422,9.031z"/>
			</g>
		</g>
		<g>
			<g>
				<path class="st7" d="M63.931,8.067c-0.026-1.522-1.292-2.746-2.814-2.721L55.604,5.44c-1.522,0.026-2.746,1.292-2.721,2.814
					l0.03,1.741c0.026,1.522,1.292,2.746,2.814,2.721l5.512-0.094c1.522-0.026,2.746-1.292,2.721-2.814L63.931,8.067z"/>
			</g>
		</g>
		<g>
			<g>
				<path class="st3" d="M64.332,0H52.513c-2.001,0-3.639,1.637-3.639,3.639s1.637,3.639,3.639,3.639h11.818
					c2.001,0,3.639-1.637,3.639-3.639S66.333,0,64.332,0z"/>
			</g>
		</g>
	</g>
	<g>
		<g>
			<g>
				<g>
					<path class="st2" d="M91.992,24.063c-0.887-0.697-2.183-0.542-2.88,0.345l-4.019,5.113c-0.697,0.887-0.542,2.183,0.345,2.88
						c0.887,0.697,2.183,0.542,2.88-0.345l4.019-5.113C93.034,26.056,92.879,24.76,91.992,24.063z"/>
				</g>
			</g>
			<g>
				<g>
					<path class="st7" d="M95.399,23.108l-3.404-2.584c-0.94-0.713-2.293-0.528-3.006,0.412l-0.816,1.075
						c-0.713,0.94-0.528,2.293,0.412,3.006l3.404,2.584c0.94,0.713,2.293,0.528,3.006-0.412l0.816-1.075
						C96.525,25.174,96.339,23.821,95.399,23.108z"/>
				</g>
			</g>
			<g>
				<g>
					<path class="st3" d="M99.92,21.389l-7.203-5.661c-1.22-0.959-3.002-0.745-3.961,0.474c-0.959,1.22-0.745,3.002,0.474,3.96
						l7.203,5.661c1.22,0.959,3.002,0.745,3.961-0.474C101.353,24.13,101.14,22.348,99.92,21.389z"/>
				</g>
			</g>
		</g>
		<g>
			<g>
				<g>
					<path class="st2" d="M31.752,29.165l-4.019-5.113c-0.697-0.887-1.993-1.042-2.88-0.345s-1.042,1.993-0.345,2.88l4.019,5.113
						c0.697,0.887,1.993,1.042,2.88,0.345C32.294,31.348,32.449,30.052,31.752,29.165z"/>
				</g>
			</g>
			<g>
				<g>
					<path class="st7" d="M28.672,21.655l-0.816-1.075c-0.713-0.94-2.066-1.125-3.006-0.412l-3.404,2.584
						c-0.94,0.713-1.125,2.066-0.412,3.006l0.816,1.075c0.713,0.94,2.066,1.125,3.006,0.412l3.404-2.584
						C29.2,23.948,29.385,22.595,28.672,21.655z"/>
				</g>
			</g>
			<g>
				<g>
					<path class="st3" d="M28.088,15.846c-0.959-1.22-2.741-1.433-3.961-0.474l-7.203,5.661c-1.22,0.959-1.433,2.741-0.474,3.961
						c0.959,1.22,2.741,1.433,3.961,0.474l7.203-5.661C28.833,18.848,29.047,17.066,28.088,15.846z"/>
				</g>
			</g>
		</g>
	</g>
	<g>
		<g>
			<g>
				<circle class="st7" cx="57.5" cy="65.767" r="49.233"/>
			</g>
		</g>
		<g>
			<g>
				<circle class="st3" cx="57.5" cy="65.767" r="44.681"/>
			</g>
		</g>
		<g>
			<g>
				<circle class="st1" cx="57.5" cy="65.767" r="38.793"/>
			</g>
		</g>
		<g>
			<g>
				<circle class="st0" cx="57.5" cy="65.767" r="36.842"/>
			</g>
		</g>
		<g>
			<g>
				<g>
					<path class="st8" d="M57.5,31.287v34.481l24.382-24.382C75.642,35.146,67.022,31.287,57.5,31.287z"/>
				</g>
			</g>
			<g>
				<g>
					<path class="st3" d="M81.882,41.386L57.5,65.767l29.148,18.41c3.372-5.328,5.332-11.638,5.332-18.41
						C91.981,56.246,88.121,47.626,81.882,41.386z"/>
				</g>
			</g>
		</g>
		<g>
			<g>
				<g>
					<g>
						<path class="st3" d="M57.698,87.092c-0.728,0-1.323,0.595-1.323,1.323v9.262c0,0.728,0.595,1.323,1.323,1.323
							s1.323-0.595,1.323-1.323v-9.262C59.021,87.687,58.426,87.092,57.698,87.092z"/>
					</g>
				</g>
				<g>
					<g>
						<path class="st3" d="M34.874,64.268h-9.262c-0.728,0-1.323,0.595-1.323,1.323c0,0.728,0.595,1.323,1.323,1.323h9.262
							c0.728,0,1.323-0.595,1.323-1.323C36.197,64.863,35.602,64.268,34.874,64.268z"/>
					</g>
				</g>
				<g>
					<g>
						<path class="st7" d="M39.113,45.135l-3.168-3.168c-0.515-0.515-1.357-0.515-1.871,0c-0.515,0.515-0.515,1.357,0,1.871
							l3.168,3.168c0.515,0.515,1.357,0.515,1.871,0C39.628,46.491,39.628,45.649,39.113,45.135z"/>
					</g>
				</g>
				<g>
					<g>
						<path class="st7" d="M81.322,87.344l-3.168-3.168c-0.515-0.515-1.357-0.515-1.871,0c-0.515,0.515-0.515,1.357,0,1.871
							l3.168,3.168c0.515,0.515,1.357,0.515,1.871,0C81.837,88.7,81.837,87.858,81.322,87.344z"/>
					</g>
				</g>
				<g>
					<g>
						<path class="st7" d="M39.113,84.176c-0.515-0.515-1.357-0.515-1.871,0l-3.168,3.168c-0.515,0.515-0.515,1.357,0,1.871
							c0.515,0.515,1.357,0.515,1.871,0l3.168-3.168C39.628,85.533,39.628,84.69,39.113,84.176z"/>
					</g>
				</g>
				<g>
					<g>
						<path class="st7" d="M32.656,53.897l-4.145-1.699c-0.673-0.276-1.45,0.049-1.726,0.722c-0.276,0.673,0.049,1.45,0.722,1.726
							l4.145,1.699c0.673,0.276,1.45-0.049,1.726-0.722C33.655,54.95,33.33,54.173,32.656,53.897z"/>
					</g>
				</g>
				<g>
					<g>
						<path class="st7" d="M47.73,89.911c-0.673-0.276-1.45,0.049-1.726,0.722l-1.699,4.145c-0.276,0.673,0.049,1.45,0.722,1.726
							c0.673,0.276,1.45-0.049,1.726-0.722l1.699-4.145C48.729,90.963,48.404,90.187,47.73,89.911z"/>
					</g>
				</g>
				<g>
					<g>
						<path class="st7" d="M48.194,39.639l-1.74-4.128c-0.283-0.671-1.063-0.988-1.733-0.705c-0.671,0.283-0.988,1.063-0.705,1.733
							l1.74,4.128c0.283,0.671,1.063,0.988,1.733,0.705C48.159,41.089,48.476,40.309,48.194,39.639z"/>
					</g>
				</g>
				<g>
					<g>
						<path class="st7" d="M71.382,94.643l-1.74-4.128c-0.283-0.671-1.063-0.988-1.733-0.705c-0.671,0.283-0.988,1.063-0.705,1.733
							l1.74,4.128c0.283,0.671,1.063,0.988,1.733,0.705C71.347,96.094,71.664,95.314,71.382,94.643z"/>
					</g>
				</g>
				<g>
					<g>
						<path class="st7" d="M33.479,75.801c-0.283-0.671-1.063-0.988-1.733-0.705l-4.128,1.74c-0.671,0.283-0.988,1.063-0.705,1.733
							c0.283,0.671,1.063,0.988,1.733,0.705l4.128-1.74C33.445,77.251,33.762,76.471,33.479,75.801z"/>
					</g>
				</g>
			</g>
			<g>
				<g>
					<path class="st3" d="M57.698,32.535c-0.728,0-1.323,0.595-1.323,1.323v9.262c0,0.728,0.595,1.323,1.323,1.323
						s1.323-0.595,1.323-1.323v-9.262C59.021,33.13,58.426,32.535,57.698,32.535z"/>
				</g>
			</g>
			<g>
				<g>
					<path class="st7" d="M89.388,64.268h-9.262c-0.728,0-1.323,0.595-1.323,1.323c0,0.728,0.595,1.323,1.323,1.323h9.262
						c0.728,0,1.323-0.595,1.323-1.323C90.711,64.863,90.116,64.268,89.388,64.268z"/>
				</g>
			</g>
			<g>
				<g>
					<path class="st0" d="M81.322,41.967c-0.515-0.515-1.357-0.515-1.871,0l-3.168,3.168c-0.515,0.515-0.515,1.357,0,1.871
						c0.515,0.515,1.357,0.515,1.871,0l3.168-3.168C81.837,43.324,81.837,42.482,81.322,41.967z"/>
				</g>
			</g>
			<g>
				<g>
					<path class="st0" d="M87.889,76.535l-4.145-1.699c-0.673-0.276-1.45,0.049-1.726,0.722s0.049,1.45,0.722,1.726l4.145,1.699
						c0.673,0.276,1.45-0.049,1.726-0.722C88.888,77.588,88.562,76.811,87.889,76.535z"/>
				</g>
			</g>
			<g>
				<g>
					<path class="st7" d="M70.369,34.678c-0.673-0.276-1.45,0.049-1.726,0.722l-1.699,4.145c-0.276,0.673,0.049,1.45,0.722,1.726
						c0.673,0.276,1.45-0.049,1.726-0.722l1.699-4.145C71.367,35.73,71.042,34.954,70.369,34.678z"/>
				</g>
			</g>
			<g>
				<g>
					<path class="st0" d="M88.484,52.613c-0.283-0.671-1.063-0.988-1.733-0.705l-4.128,1.74c-0.671,0.283-0.988,1.063-0.705,1.733
						s1.063,0.988,1.733,0.705l4.128-1.74C88.449,54.063,88.766,53.283,88.484,52.613z"/>
				</g>
			</g>
			<g>
				<g>
					<circle class="st7" cx="57.5" cy="65.767" r="6.751"/>
				</g>
			</g>
		</g>
	</g>
</g>
</svg>
